<svg width="4" height="12" viewBox="0 0 4 12" fill="none" xmlns="http://www.w3.org/2000/svg">
<path d="M1.92045 2.45455H2.92614V9.47727C2.92614 9.88068 2.85653 10.2301 2.71733 10.5256C2.58097 10.821 2.37358 11.0497 2.09517 11.2116C1.8196 11.3736 1.47159 11.4545 1.05114 11.4545C1.01705 11.4545 0.982955 11.4545 0.948864 11.4545C0.914773 11.4545 0.880682 11.4545 0.846591 11.4545V10.517C0.880682 10.517 0.911932 10.517 0.940341 10.517C0.96875 10.517 1 10.517 1.03409 10.517C1.34091 10.517 1.56534 10.4261 1.70739 10.2443C1.84943 10.0653 1.92045 9.80966 1.92045 9.47727V2.45455ZM2.41477 1.36364C2.21875 1.36364 2.04972 1.29688 1.90767 1.16335C1.76847 1.02983 1.69886 0.869318 1.69886 0.681818C1.69886 0.494318 1.76847 0.333807 1.90767 0.200284C2.04972 0.0667613 2.21875 0 2.41477 0C2.6108 0 2.77841 0.0667613 2.91761 0.200284C3.05966 0.333807 3.13068 0.494318 3.13068 0.681818C3.13068 0.869318 3.05966 1.02983 2.91761 1.16335C2.77841 1.29688 2.6108 1.36364 2.41477 1.36364Z" fill="white"/>
</svg>
